<?xml version="1.0" standalone="no"?>
<!DOCTYPE svg PUBLIC "-//W3C//DTD SVG 20010904//EN"
 "http://www.w3.org/TR/2001/REC-SVG-20010904/DTD/svg10.dtd">
<svg version="1.0" xmlns="http://www.w3.org/2000/svg"
 width="192.000000pt" height="50.000000pt" viewBox="0 0 192.000000 50.000000"
 preserveAspectRatio="xMidYMid meet">

<g transform="translate(0.000000,50.000000) scale(0.100000,-0.100000)"
fill="#000000" stroke="none">
<path d="M415 436 c8 -20 15 -44 15 -54 0 -11 12 -22 34 -30 18 -7 41 -21 51
-32 28 -31 37 -24 20 17 -19 46 -33 61 -90 102 l-44 32 14 -35z"/>
<path d="M315 353 c11 -33 40 -61 51 -50 12 12 -10 55 -35 70 l-29 17 13 -37z"/>
<path d="M397 323 c16 -54 12 -137 -9 -177 -13 -24 -13 -21 -10 41 l3 68 -51
33 -51 32 8 -27 c12 -41 8 -146 -5 -168 -10 -17 -12 -11 -10 34 3 54 3 55 -37
78 -22 12 -43 23 -46 23 -4 0 -3 -19 3 -42 11 -53 3 -100 -26 -154 l-23 -41
95 34 c103 37 214 63 265 63 18 0 45 -7 61 -15 17 -9 33 -12 38 -7 17 17 11
73 -9 100 -19 27 -192 171 -205 172 -3 0 1 -21 9 -47z"/>
<path d="M214 295 c7 -23 18 -35 34 -38 17 -3 22 -1 18 10 -3 8 -6 19 -6 24 0
4 -13 15 -28 23 l-29 15 11 -34z"/>
<path d="M832 234 c-24 -16 -29 -53 -12 -85 12 -21 74 -27 85 -9 4 7 -2 9 -19
4 -32 -8 -56 10 -56 41 0 31 24 49 55 41 27 -7 35 8 9 18 -24 9 -38 7 -62 -10z"/>
<path d="M983 235 c-26 -18 -32 -72 -11 -93 18 -18 73 -14 91 6 48 53 -22 128
-80 87z m65 -17 c15 -15 15 -51 0 -66 -19 -19 -45 -14 -62 10 -20 28 -20 33 0
52 18 19 45 21 62 4z"/>
<path d="M1295 236 c-25 -18 -13 -44 25 -58 39 -13 33 -33 -9 -32 -17 1 -28
-2 -25 -7 9 -15 60 -10 74 6 16 19 0 40 -35 49 -14 4 -25 14 -25 22 0 13 7 15
30 11 31 -7 42 6 14 17 -22 9 -28 8 -49 -8z"/>
<path d="M1435 193 c-14 -31 -23 -59 -19 -62 3 -3 10 2 15 12 12 21 65 23 73
2 3 -8 10 -15 15 -15 5 0 -3 27 -17 60 -15 33 -30 60 -34 60 -5 0 -20 -25 -33
-57z m55 -15 c0 -4 -9 -8 -20 -8 -21 0 -24 8 -13 36 6 16 7 16 20 -2 7 -10 13
-21 13 -26z"/>
<path d="M1130 186 c0 -31 5 -56 10 -56 6 0 10 9 10 20 0 11 6 20 13 20 8 0
22 -9 32 -20 10 -11 23 -20 28 -20 6 0 3 8 -7 19 -15 16 -15 19 -1 31 9 7 15
23 13 34 -2 17 -11 22 -50 24 l-48 3 0 -55z m77 28 c7 -18 -14 -35 -37 -31 -8
1 -16 12 -18 25 -3 18 1 22 23 22 14 0 28 -7 32 -16z"/>
<path d="M1580 185 c0 -30 5 -55 10 -55 6 0 10 25 10 55 0 30 -4 55 -10 55 -5
0 -10 -25 -10 -55z"/>
<path d="M1661 183 c0 -45 2 -53 9 -35 12 27 36 29 50 2 6 -11 15 -20 21 -20
6 0 6 7 -1 20 -7 14 -7 25 1 38 20 32 4 52 -41 52 l-40 0 1 -57z m73 32 c8
-21 -39 -44 -56 -27 -6 6 -8 18 -5 26 8 20 53 21 61 1z"/>
</g>
</svg>
