<?xml version="1.0" standalone="no"?>
<!DOCTYPE svg PUBLIC "-//W3C//DTD SVG 20010904//EN"
 "http://www.w3.org/TR/2001/REC-SVG-20010904/DTD/svg10.dtd">
<svg version="1.0" xmlns="http://www.w3.org/2000/svg"
 width="192.000000pt" height="50.000000pt" viewBox="0 0 192.000000 50.000000"
 preserveAspectRatio="xMidYMid meet">

<g transform="translate(0.000000,50.000000) scale(0.100000,-0.100000)"
fill="#000000" stroke="none">
<path d="M405 456 c8 -20 15 -44 15 -54 0 -11 12 -22 34 -30 18 -7 41 -21 51
-32 28 -31 37 -24 20 17 -19 46 -33 61 -90 102 l-44 32 14 -35z"/>
<path d="M305 373 c11 -33 40 -61 51 -50 12 12 -10 55 -35 70 l-29 17 13 -37z"/>
<path d="M387 343 c16 -54 12 -137 -9 -177 -13 -24 -13 -21 -10 41 l3 68 -51
33 -51 32 8 -27 c12 -41 8 -146 -5 -168 -10 -17 -12 -11 -10 34 3 54 3 55 -37
78 -22 12 -43 23 -46 23 -4 0 -3 -19 3 -42 11 -53 3 -100 -26 -154 l-23 -41
95 34 c103 37 214 63 265 63 18 0 45 -7 61 -15 17 -9 33 -12 38 -7 17 17 11
73 -9 100 -19 27 -192 171 -205 172 -3 0 1 -21 9 -47z"/>
<path d="M770 373 c-31 -11 -40 -37 -40 -118 0 -103 11 -120 75 -120 54 0 75
20 75 72 0 30 -3 33 -30 33 -28 0 -30 -3 -30 -36 0 -24 -4 -34 -12 -31 -18 5
-18 159 0 165 8 2 12 -7 12 -27 0 -28 3 -31 30 -31 28 0 30 3 30 34 0 52 -52
80 -110 59z"/>
<path d="M932 364 c-20 -14 -22 -23 -22 -109 0 -86 2 -95 22 -109 29 -20 67
-20 96 0 20 14 22 23 22 109 0 86 -2 95 -22 109 -12 9 -34 16 -48 16 -14 0
-36 -7 -48 -16z m58 -109 c0 -50 -4 -85 -10 -85 -6 0 -10 35 -10 85 0 50 4 85
10 85 6 0 10 -35 10 -85z"/>
<path d="M1080 255 l0 -125 30 0 c30 0 30 1 30 55 0 30 5 55 10 55 6 0 10 -25
10 -55 0 -54 0 -55 30 -55 30 0 30 1 30 55 0 40 -4 57 -15 61 -13 5 -13 8 0
21 8 8 15 30 15 48 0 44 -29 65 -92 65 l-48 0 0 -125z m80 55 c0 -16 -4 -30
-10 -30 -5 0 -10 14 -10 30 0 17 5 30 10 30 6 0 10 -13 10 -30z"/>
<path d="M1262 364 c-14 -9 -22 -26 -22 -44 0 -42 9 -57 46 -81 24 -14 34 -28
34 -45 0 -13 -4 -24 -10 -24 -5 0 -10 11 -10 25 0 21 -5 25 -30 25 -27 0 -30
-3 -30 -29 0 -53 69 -79 118 -45 16 11 22 25 22 52 0 44 -5 51 -47 81 -31 21
-46 61 -23 61 6 0 10 -9 10 -20 0 -16 7 -20 30 -20 23 0 30 4 30 20 0 50 -71
77 -118 44z"/>
<path d="M1425 348 c-3 -18 -11 -75 -19 -125 l-13 -93 35 0 c31 0 34 2 30 25
-4 19 -1 25 13 25 14 0 19 -7 19 -25 0 -21 5 -25 31 -25 31 0 31 1 26 38 -3
20 -12 76 -19 125 l-12 87 -43 0 c-40 0 -42 -2 -48 -32z m57 -80 c4 -37 2 -48
-8 -48 -15 0 -17 20 -8 69 8 40 10 37 16 -21z"/>
<path d="M1560 255 l0 -125 35 0 35 0 0 125 0 125 -35 0 -35 0 0 -125z"/>
<path d="M1650 255 l0 -125 35 0 35 0 0 56 c0 34 4 53 10 49 6 -3 10 -28 10
-56 0 -46 2 -49 25 -49 24 0 25 3 25 60 0 40 -4 60 -12 60 -9 0 -9 3 0 12 7 7
12 31 12 55 0 51 -16 63 -89 63 l-51 0 0 -125z m90 55 c0 -10 -4 -22 -10 -25
-6 -4 -10 7 -10 25 0 18 4 29 10 25 6 -3 10 -15 10 -25z"/>
<path d="M204 315 c7 -23 18 -35 34 -38 17 -3 22 -1 18 10 -3 8 -6 19 -6 24 0
4 -13 15 -28 23 l-29 15 11 -34z"/>
</g>
</svg>
